<?xml version="1.0" standalone="no"?>
<!DOCTYPE svg PUBLIC "-//W3C//DTD SVG 20010904//EN"
 "http://www.w3.org/TR/2001/REC-SVG-20010904/DTD/svg10.dtd">
<svg version="1.0" xmlns="http://www.w3.org/2000/svg"
 width="704.000000pt" height="704.000000pt" viewBox="0 0 704.000000 704.000000"
 preserveAspectRatio="xMidYMid meet">
<metadata>
Created by potrace 1.14, written by Peter Selinger 2001-2017
</metadata>
<g transform="translate(0.000000,704.000000) scale(0.100000,-0.100000)"
fill="#000000" stroke="none">
<path d="M4 6530 c0 -93 2 -110 15 -111 19 -1 170 -1 191 0 12 1 15 20 15 111
l0 110 -110 0 -111 0 0 -110z"/>
<path d="M883 6529 l1 -112 -111 0 -111 0 0 -96 c0 -53 0 -103 -1 -111 -1 -12
-18 -15 -98 -15 -54 1 -103 0 -109 -2 -7 -3 -10 -39 -9 -101 1 -53 -1 -102 -3
-109 -2 -8 -36 -11 -102 -11 -55 0 -103 -3 -109 -6 -5 -3 -8 -53 -7 -111 l2
-105 -111 0 -111 0 0 -334 0 -334 110 2 110 1 1 110 0 110 108 0 c66 -1 107 3
108 10 1 5 2 55 3 110 l1 100 105 0 c58 0 107 3 110 7 3 3 5 54 4 112 l-1 106
109 0 c96 0 108 2 109 18 1 9 1 59 1 110 l0 92 97 1 c53 1 102 1 109 0 13 -2
13 1 14 134 l1 90 101 -1 c56 0 106 1 111 3 6 2 9 47 8 112 l-2 108 105 0 c57
0 107 2 110 6 6 5 6 40 5 170 l-1 47 -329 0 -328 0 0 -111z"/>
<path d="M2639 6608 c0 -39 0 -547 0 -600 l1 -38 88 1 c143 1 134 3 132 -33
-1 -18 -2 -68 -1 -110 l1 -78 109 0 109 0 -1 -106 c-2 -86 1 -107 13 -113 13
-5 85 -6 186 -2 l22 1 0 329 c0 236 -4 331 -12 333 -6 3 -55 4 -108 3 -92 0
-98 1 -99 20 -1 11 -1 61 -1 111 l1 91 -110 -1 -109 -1 0 113 0 112 -110 0
-110 0 -1 -32z"/>
<path d="M3959 6633 c0 -4 -2 -55 -3 -112 l-1 -105 -108 1 c-73 0 -107 -3
-108 -11 -1 -6 -2 -56 -2 -111 l-2 -100 -102 0 c-56 0 -105 -3 -109 -8 -9 -9
-12 -635 -2 -650 8 -14 207 -16 210 -2 1 6 2 51 4 100 1 50 2 96 3 103 1 9 30
12 109 12 l108 0 0 110 -1 110 45 1 c25 0 74 1 110 2 l65 2 0 330 0 330 -107
3 c-60 1 -108 -1 -109 -5z"/>
<path d="M5274 6530 c0 -104 1 -110 20 -111 12 -1 61 -2 110 -2 l90 -2 0 -110
1 -110 102 0 c56 0 104 -3 108 -7 4 -4 8 -53 9 -110 l1 -103 108 0 107 0 1
-25 c0 -14 1 -64 0 -112 l0 -88 109 0 c98 0 110 -2 111 -17 1 -10 1 -58 1
-108 0 -49 3 -92 8 -95 4 -3 55 -4 112 -4 l103 1 0 -111 0 -110 105 -1 105 -1
3 -110 3 -111 109 0 110 -1 0 27 c1 25 0 572 0 619 0 21 -3 22 -111 22 l-110
0 1 63 c1 34 1 85 1 112 l-1 50 -110 -2 -109 -2 2 110 c2 91 -1 109 -13 110
-8 1 -58 2 -110 3 l-95 1 -1 97 c-1 54 -4 104 -7 112 -4 10 -29 14 -99 14 -51
0 -98 0 -104 1 -8 1 -11 35 -11 109 l1 107 -330 3 -330 2 0 -110z"/>
<path d="M6590 6530 c0 -107 1 -110 23 -111 12 -1 62 -2 110 -2 l89 -2 1 -110
2 -110 95 0 c52 -1 102 1 110 3 13 3 15 34 12 223 l-3 219 -219 0 -220 0 0
-110z"/>
<path d="M1798 5972 l-36 -3 -1 -110 0 -109 110 0 109 0 0 -110 c0 -81 3 -110
13 -111 6 0 55 -1 107 -2 l95 -1 5 -111 5 -110 328 0 328 0 -3 110 -3 110 -95
2 c-52 0 -102 1 -110 2 -12 1 -15 20 -15 108 l0 108 -107 3 -108 3 0 109 0
110 -27 1 c-102 2 -565 3 -595 1z"/>
<path d="M4412 5969 c-14 -5 -17 -21 -18 -100 -1 -52 -2 -99 -3 -106 -1 -9
-33 -13 -108 -15 l-108 -3 1 -110 0 -110 -107 1 c-71 1 -109 -3 -111 -10 -2
-6 -3 -56 -3 -111 l0 -100 315 -1 c173 0 322 2 331 4 13 3 15 21 14 107 0 64
3 106 10 108 5 2 54 3 107 3 57 -1 99 3 101 9 2 6 3 55 2 110 l0 100 110 5
109 5 1 98 c1 53 -2 102 -6 108 -7 12 -605 19 -637 8z"/>
<path d="M1114 5075 c-9 -8 -12 -83 -11 -335 l2 -325 109 -1 109 0 0 -112 -1
-112 109 0 c80 0 109 -3 110 -12 0 -7 0 -57 -1 -110 l-1 -98 93 -1 c93 -1 120
0 126 6 7 7 4 646 -3 653 -4 4 -52 7 -108 7 l-102 1 -2 94 c-1 52 -2 103 -2
113 -1 15 -13 17 -110 17 l-110 0 1 93 c0 50 -1 101 -1 112 -1 19 -8 20 -98
20 -53 0 -102 -4 -109 -10z"/>
<path d="M3100 5082 l-25 -3 2 -109 1 -110 -109 0 -109 0 -1 -77 c-1 -43 0
-94 1 -113 l1 -35 -110 1 c-72 0 -111 -3 -112 -10 0 -6 0 -56 0 -111 l0 -101
-107 0 -107 1 -3 -113 -3 -112 -109 0 -110 0 0 -110 0 -110 -87 -1 c-49 -1
-98 0 -111 1 -23 2 -23 0 -21 -105 1 -64 -3 -110 -9 -114 -6 -3 -55 -6 -110
-5 l-101 1 2 -111 2 -111 218 -1 217 0 1 60 c0 34 0 84 -1 112 l-1 50 108 0
108 -1 5 110 5 110 40 2 c22 1 70 2 108 2 l67 1 0 110 0 109 108 3 107 3 5
110 5 110 95 -1 c52 0 100 1 107 3 7 3 11 37 10 102 0 54 3 102 6 108 3 5 51
9 111 9 l104 -1 0 222 c0 123 -3 223 -7 224 -24 2 -171 3 -191 1z"/>
<path d="M3519 5085 c-5 0 -2 -430 3 -438 4 -7 46 -11 110 -12 l103 0 2 -105
c0 -58 2 -108 2 -111 1 -3 46 -5 102 -5 55 1 104 -1 108 -4 4 -3 7 -52 7 -110
l-1 -105 110 -5 110 -5 0 -103 c0 -57 2 -105 6 -107 3 -2 53 -5 110 -6 l105
-1 -1 -97 c-1 -53 0 -103 2 -111 3 -12 23 -15 108 -14 66 0 106 -3 108 -10 2
-6 3 -55 2 -108 -1 -54 1 -99 4 -99 3 -1 101 -2 218 -4 186 -1 212 0 215 14 2
9 4 59 3 111 l0 95 -110 0 -110 0 -1 100 c-1 55 -2 106 -3 113 -1 9 -30 12
-110 12 l-108 0 2 108 1 107 -110 5 -111 5 0 108 c0 88 -2 107 -15 108 -8 1
-53 3 -100 4 -47 1 -89 3 -95 4 -6 0 -10 44 -10 108 l0 108 -105 0 c-58 0
-107 3 -110 7 -3 3 -5 53 -4 110 l0 103 -110 5 -111 5 2 90 c4 139 12 130
-112 130 -58 0 -105 0 -106 0z"/>
<path d="M5519 5080 c-25 -5 -25 -5 -25 -110 l1 -105 -110 -5 -110 -5 0 -107
c0 -60 -2 -108 -5 -109 -3 -1 -52 -2 -110 -3 l-105 -1 0 -332 -1 -333 111 0
110 0 -1 110 0 110 108 0 c79 0 108 3 109 13 1 6 2 57 3 112 l1 99 102 1 c56
0 105 3 109 7 8 9 12 636 3 650 -6 10 -148 16 -190 8z"/>
<path d="M5950 4190 l-235 -5 0 -105 -1 -105 -109 -5 -110 -5 0 -108 c0 -88
-3 -107 -15 -108 -8 -1 -58 -2 -110 -3 l-95 -1 -1 -108 c0 -59 2 -108 5 -108
3 -1 151 -2 329 -3 318 -2 322 -1 323 19 1 11 1 61 1 111 l0 90 105 -1 c57 0
107 4 110 8 3 5 5 56 4 112 l-1 103 106 0 c58 1 108 2 110 4 3 4 7 128 5 185
l-1 32 -92 3 c-51 2 -199 1 -328 -2z"/>
<path d="M444 4080 l0 -110 30 -1 c17 0 67 0 111 0 l80 1 -1 -110 c-1 -60 1
-110 5 -111 3 -1 51 -2 106 -4 55 -1 102 -3 105 -4 3 0 4 -48 3 -105 -1 -73 2
-106 10 -108 7 -3 153 -4 325 -4 223 1 315 4 320 13 4 6 6 56 4 111 l-3 99
-107 -1 -107 -1 -1 110 -2 110 -88 2 c-49 1 -99 2 -110 2 -21 1 -22 5 -21 109
l1 107 -330 3 -330 2 0 -110z"/>
<path d="M6808 3857 l-3 -111 -105 0 -105 -1 -3 -111 -3 -111 -87 1 c-143 2
-132 12 -131 -115 l1 -109 109 0 109 0 0 -112 0 -113 110 1 110 2 0 -109 c0
-60 3 -110 8 -110 4 -1 51 -2 106 -3 84 -1 99 1 105 16 3 9 5 260 3 558 l-2
541 -110 -2 -109 -1 -3 -111z"/>
<path d="M0 3413 c0 -377 -11 -334 85 -334 25 0 65 0 90 0 l45 1 0 113 0 112
112 0 112 0 0 103 c1 59 -3 107 -9 110 -15 10 -178 9 -197 0 -17 -8 -18 0 -18
110 l0 118 -110 0 -110 0 0 -333z"/>
<path d="M3302 3732 c-3 -8 -5 -58 -6 -111 l-1 -96 -102 -1 c-56 0 -105 -3
-109 -6 -5 -5 -8 -103 -5 -190 l1 -28 109 0 110 0 -1 -105 c-1 -58 2 -108 5
-111 5 -5 144 -9 198 -5 13 1 16 17 15 109 l0 107 110 5 110 5 -1 110 0 109
-105 2 c-58 1 -107 2 -110 3 -3 0 -5 50 -4 109 l1 108 -105 0 c-80 0 -105 -3
-110 -14z"/>
<path d="M4758 3300 l-143 -5 0 -107 c0 -90 -2 -108 -15 -109 -8 0 -58 -1
-110 0 l-95 0 0 -109 c0 -66 -4 -111 -10 -113 -5 -2 -54 -3 -107 -2 -61 0 -98
-3 -99 -10 -1 -5 -3 -50 -4 -100 -1 -49 -3 -95 -4 -101 -1 -7 -35 -11 -102
-10 -57 1 -104 -3 -108 -9 -4 -5 -7 -55 -6 -110 l0 -100 -109 -5 -110 -5 -1
-109 0 -108 -107 0 c-74 1 -107 -2 -110 -11 -3 -10 -2 -358 1 -418 1 -15 15
-17 109 -15 l107 1 1 110 1 110 99 1 c54 1 104 2 110 3 7 1 10 40 10 111 l-1
110 80 -1 c44 -1 94 -1 111 0 l32 1 -2 110 -2 110 107 0 c76 0 108 4 111 13 3
6 4 56 3 110 -1 81 1 97 14 98 9 1 50 1 91 0 123 -1 116 -8 115 114 -1 67 3
105 9 106 6 1 52 3 101 4 50 1 95 3 100 4 6 0 10 44 10 109 l0 107 104 1 c61
1 106 5 110 12 3 6 6 55 6 109 l0 98 -77 5 c-42 3 -141 3 -220 0z"/>
<path d="M5330 3300 l-55 -5 -1 -107 -1 -108 26 -1 c14 0 63 0 109 0 66 1 82
-2 83 -14 0 -8 1 -58 2 -110 0 -57 5 -96 11 -98 6 -2 55 -3 109 -2 80 0 97 -2
98 -15 0 -8 1 -58 1 -111 l0 -96 329 1 329 0 1 41 c0 22 1 70 2 108 2 53 -1
67 -13 69 -8 0 -51 2 -95 3 -44 1 -88 3 -97 4 -14 1 -16 14 -15 110 l2 109
-100 0 c-55 0 -105 0 -111 1 -6 1 -11 39 -11 106 0 58 -3 108 -5 111 -7 6
-530 10 -598 4z"/>
<path d="M882 3203 c0 -54 0 -105 -1 -113 -1 -12 -19 -15 -110 -13 l-108 1 1
-109 c1 -102 0 -109 -19 -110 -11 -1 -60 -2 -110 -3 l-90 -1 -1 -100 c0 -55 1
-105 3 -111 3 -8 97 -11 326 -9 177 1 324 3 327 3 3 1 5 50 5 109 l0 108 102
0 c56 0 105 3 109 7 4 4 8 54 8 110 l1 103 103 2 c57 0 105 3 108 5 3 4 7 147
5 201 -1 16 -24 17 -330 17 l-329 0 0 -97z"/>
<path d="M1762 3190 c1 -94 3 -110 17 -111 9 -1 58 -1 109 -1 l92 0 0 -112 0
-111 108 0 107 0 5 -111 5 -111 90 0 c50 -1 98 -2 108 -2 15 -1 17 -13 17
-111 l0 -110 110 0 109 0 -1 -107 c-1 -59 3 -108 8 -110 5 -1 54 -4 109 -5 92
-3 100 -5 101 -23 1 -11 2 -61 3 -110 l1 -90 108 0 107 0 2 -85 c1 -47 2 -97
2 -111 l1 -27 109 1 109 1 0 223 -1 223 -108 -2 c-67 -2 -109 1 -110 7 0 6 -1
56 -1 113 l0 102 -109 0 -108 0 -3 112 -3 112 -110 0 -110 -1 0 111 0 111
-108 0 -107 0 0 112 0 112 -77 -1 c-43 0 -93 1 -110 1 l-33 1 0 110 0 110
-219 0 -220 0 1 -110z"/>
<path d="M1538 2745 l-3 -110 -105 -1 -105 -1 -2 -64 c-1 -35 -2 -85 -2 -111
l-1 -48 -109 0 -109 0 2 -332 1 -333 108 -1 c59 -1 107 1 108 5 0 3 1 53 2
111 l2 105 108 0 107 0 1 50 c0 27 0 78 -1 112 l-1 63 58 -1 c32 -1 83 -1 113
0 l55 1 -2 308 c-1 169 -2 318 -2 332 l-1 25 -110 0 -109 0 -3 -110z"/>
<path d="M5059 2855 c-1 0 -2 -150 -3 -332 -1 -222 2 -333 9 -334 5 0 55 0
110 0 l100 0 -1 -109 c0 -70 3 -110 10 -113 6 -2 55 -3 109 -2 61 1 97 -3 98
-9 1 -6 2 -56 3 -111 l1 -100 108 -1 c93 -2 107 0 108 15 0 9 1 158 2 331 l1
315 -110 5 -110 5 1 98 c0 54 -2 103 -5 110 -3 8 -37 12 -110 12 l-105 0 0
110 -1 110 -107 0 c-59 0 -108 0 -108 0z"/>
<path d="M6 1961 c-2 -3 -2 -154 -2 -335 l1 -329 110 -1 109 -1 2 -105 c1 -58
2 -107 3 -110 0 -3 49 -6 108 -5 l107 0 2 -105 c0 -58 2 -109 3 -113 0 -5 47
-7 103 -6 87 3 102 1 107 -14 3 -9 5 -59 5 -112 l-2 -95 112 0 111 0 -1 -102
c-1 -56 0 -107 2 -113 3 -7 110 -9 327 -8 177 0 324 2 327 2 4 1 4 82 1 201
-1 19 -8 20 -110 20 l-109 0 0 105 c1 58 -1 108 -4 111 -4 3 -53 6 -110 7
l-103 2 0 105 c0 58 -3 108 -8 111 -4 3 -52 5 -107 4 -116 -1 -110 -8 -109
110 2 125 14 113 -108 112 l-108 -1 -1 107 c0 59 -3 109 -6 113 -3 3 -52 6
-109 7 l-104 2 0 103 c0 66 -4 105 -12 110 -6 4 -56 7 -110 6 l-100 0 2 103
c1 56 -1 106 -4 110 -7 9 -210 12 -215 4z"/>
<path d="M6594 1961 c-2 -2 -4 -53 -4 -112 l0 -108 -87 1 c-150 1 -133 15
-133 -113 l0 -111 -37 2 c-21 1 -71 2 -111 1 l-73 -1 1 -97 c1 -54 1 -105 1
-113 -1 -12 -20 -15 -108 -15 l-108 0 -1 -110 -1 -110 -109 0 -109 0 -2 -105
c0 -58 -2 -108 -2 -113 -1 -4 -27 -7 -58 -6 -32 1 -81 1 -109 0 l-51 -1 1
-110 1 -109 -110 -3 -110 -3 -1 -107 c-1 -72 3 -108 10 -109 55 -5 625 -3 636
2 12 6 15 27 13 113 l-1 106 109 0 c97 0 109 2 110 18 0 9 0 56 0 104 -1 48 3
89 8 92 4 3 54 6 110 7 l101 1 1 32 c0 17 1 67 2 111 l2 80 100 1 c55 1 105 2
110 3 6 1 9 43 7 110 l-3 109 101 -1 c56 -1 106 0 111 3 10 7 17 440 6 440 -4
0 -4 6 0 14 4 8 7 59 5 113 l-3 99 -105 -1 c-58 0 -108 -2 -110 -4z"/>
<path d="M2201 1643 c1 -56 -2 -106 -6 -113 -4 -6 -21 -11 -39 -10 -17 1 -63
2 -103 1 l-72 -1 -3 -112 -3 -112 -107 0 -107 1 2 -111 2 -111 325 0 325 0 3
112 3 111 109 -1 109 -2 0 104 c0 58 4 108 8 112 10 9 173 16 173 7 0 -3 9 -4
20 -1 18 5 20 14 20 114 0 106 -1 109 -22 110 -13 0 -162 1 -331 2 l-308 2 2
-102z"/>
<path d="M3961 1730 c-4 -8 -7 -58 -6 -110 l0 -95 80 -2 c44 -1 93 -4 110 -6
l30 -3 0 -102 c0 -55 4 -104 8 -109 4 -4 54 -7 110 -8 l102 0 0 -110 0 -110
323 0 c178 0 326 2 330 5 4 3 7 53 7 112 l0 106 -103 -1 c-60 -1 -107 2 -110
8 -4 6 -7 54 -7 107 -1 53 -3 99 -6 102 -2 3 -52 6 -109 8 l-105 3 0 102 c0
56 -3 105 -7 109 -4 4 -150 7 -324 8 -272 1 -317 -1 -323 -14z"/>
<path d="M3089 1522 c-11 -2 -14 -25 -12 -115 l1 -112 -109 1 c-95 2 -109 0
-110 -15 0 -9 0 -59 1 -111 l1 -95 -106 0 c-59 0 -109 -3 -112 -8 -6 -10 -5
-648 2 -655 2 -3 51 -5 107 -6 l103 -1 0 113 0 112 112 0 112 0 -1 105 c-1 58
2 108 5 111 3 4 53 6 110 5 l104 -2 0 336 c1 244 -2 335 -11 335 -81 3 -186 4
-197 2z"/>
<path d="M3550 1520 l-35 -5 0 -333 0 -333 70 1 c39 1 89 1 111 1 l42 -1 -2
-101 c0 -55 1 -105 4 -110 3 -4 53 -10 110 -11 l105 -3 0 -105 c0 -74 3 -106
12 -110 10 -4 124 -5 193 -1 14 1 16 41 16 329 0 180 -3 329 -7 332 -5 3 -54
5 -111 5 l-103 -1 0 111 0 110 -100 1 c-55 1 -104 2 -110 3 -6 1 -10 43 -9
107 1 75 -3 107 -11 110 -18 7 -135 10 -175 4z"/>
<path d="M6827 852 c-15 -3 -17 -17 -17 -113 l0 -109 -110 0 -110 0 0 -109 c0
-78 4 -110 13 -113 6 -2 104 -3 217 -3 l205 1 2 103 c0 56 3 104 5 106 1 2 2
57 0 122 l-3 118 -92 0 c-51 0 -100 -1 -110 -3z"/>
<path d="M7 623 c-3 -7 -2 -200 2 -213 3 -11 202 -4 209 8 4 6 7 55 7 109 l-1
98 -106 3 c-59 1 -108 -1 -111 -5z"/>
</g>
</svg>
