<!-- Generated by IcoMoon.io -->
<svg version="1.1" xmlns="http://www.w3.org/2000/svg" width="1126" height="1024" viewBox="0 0 1126 1024">
<title></title>
<g id="icomoon-ignore">
</g>
<path fill="#ecd979" d="M1124.864 1010.074h-35.123v-35.584h35.149v35.584z"></path>
<path fill="#ecd979" d="M1089.766 1010.074h-35.149v-35.584h35.149v35.584zM949.248 1010.074h-35.149v-35.584h35.123v35.584zM914.099 1010.074h-35.123v-35.584h35.123v35.584zM878.976 1010.074h-35.123v-35.584h35.123v35.584zM668.16 1010.074h-35.123v-35.584h35.149v35.584zM457.395 1010.074h-35.123v-35.584h35.123v35.584zM246.605 1010.074h-35.123v-35.584h35.123v35.584zM211.482 1010.074h-35.123v-35.584h35.098v35.584zM176.358 1010.074h-35.123v-35.584h35.123v35.584zM35.84 1010.074h-35.149v-35.584h35.149v35.584zM1124.864 974.464h-35.123v-35.61h35.149v35.61zM984.346 974.464h-35.098v-35.61h35.123v35.61zM949.248 974.464h-35.149v-35.61h35.123v35.61zM914.099 974.464h-35.123v-35.61h35.123v35.61zM668.16 974.464h-35.123v-35.61h35.149v35.61z"></path>
<path fill="#ecd979" d="M633.062 974.464h-35.149v-35.61h35.149v35.61zM492.544 974.464h-35.149v-35.61h35.123v35.61z"></path>
<path fill="#ecd979" d="M457.395 974.464h-35.123v-35.61h35.123v35.61zM211.482 974.464h-35.123v-35.61h35.098v35.61zM176.358 974.464h-35.123v-35.61h35.123v35.61zM141.235 974.464h-35.123v-35.61h35.123v35.61zM1019.52 938.854h-35.149v-35.61h35.149v35.584zM984.346 938.854h-35.098v-35.61h35.123v35.584zM949.248 938.854h-35.149v-35.61h35.123v35.584zM668.16 938.854h-35.123v-35.61h35.149v35.584z"></path>
<path fill="#ecd979" d="M633.062 938.854h-35.149v-35.61h35.149v35.584z"></path>
<path fill="#ecd979" d="M597.914 938.854h-35.149v-35.61h35.149v35.584zM527.667 938.854h-35.149v-35.61h35.149v35.584z"></path>
<path fill="#ecd979" d="M492.544 938.854h-35.149v-35.61h35.123v35.584z"></path>
<path fill="#ecd979" d="M457.395 938.854h-35.123v-35.61h35.123v35.584zM176.358 938.854h-35.123v-35.61h35.123v35.584zM141.235 938.854h-35.123v-35.61h35.123v35.584zM106.086 938.854h-35.174v-35.61h35.149v35.584zM1054.643 903.245h-35.149v-35.661h35.149v35.635z"></path>
<path fill="#ecd979" d="M1019.52 903.245h-35.149v-35.661h35.149v35.635zM984.346 903.245h-35.098v-35.661h35.123v35.635zM808.704 903.245h-35.123v-35.661h35.123v35.635zM773.581 903.245h-35.123v-35.661h35.123v35.635zM738.458 903.245h-35.123v-35.661h35.123v35.635zM633.062 903.245h-35.149v-35.661h35.149v35.635z"></path>
<path fill="#ecd979" d="M597.914 903.245h-35.149v-35.661h35.149v35.635zM527.667 903.245h-35.149v-35.661h35.149v35.635z"></path>
<path fill="#ecd979" d="M492.544 903.245h-35.149v-35.661h35.123v35.635zM387.123 903.245h-35.123v-35.661h35.123v35.635zM352 903.245h-35.123v-35.661h35.123v35.635zM316.877 903.245h-35.123v-35.661h35.123v35.635zM141.235 903.245h-35.123v-35.661h35.123v35.635zM106.086 903.245h-35.174v-35.661h35.149v35.635z"></path>
<path fill="#ecd979" d="M70.963 903.245h-35.149v-35.661h35.149v35.635zM1089.766 867.61h-35.149v-35.61h35.149v35.61z"></path>
<path fill="#ecd979" d="M1054.643 867.61h-35.149v-35.61h35.149v35.61z"></path>
<path fill="#ecd979" d="M1019.52 867.61h-35.149v-35.61h35.149v35.61zM773.581 867.61h-35.123v-35.61h35.123v35.61zM738.458 867.61h-35.123v-35.61h35.123v35.61zM703.309 867.61h-35.149v-35.61h35.123v35.61zM597.914 867.61h-35.149v-35.61h35.149v35.61zM527.667 867.61h-35.149v-35.61h35.149v35.61zM422.272 867.61h-35.123v-35.61h35.123v35.61zM387.123 867.61h-35.123v-35.61h35.123v35.61zM352 867.61h-35.123v-35.61h35.123v35.61zM106.086 867.61h-35.174v-35.61h35.149v35.61z"></path>
<path fill="#ecd979" d="M70.963 867.61h-35.149v-35.61h35.149v35.61z"></path>
<path fill="#ecd979" d="M35.84 867.61h-35.149v-35.61h35.149v35.61zM1089.766 832h-35.149v-35.61h35.149v35.61z"></path>
<path fill="#ecd979" d="M1054.643 832h-35.149v-35.61h35.149v35.61zM738.458 832h-35.123v-35.61h35.123v35.61zM703.309 832h-35.149v-35.61h35.123v35.61z"></path>
<path fill="#ecd979" d="M668.16 832h-35.123v-35.61h35.149v35.61zM457.395 832h-35.123v-35.61h35.123v35.61zM422.272 832h-35.123v-35.61h35.123v35.61zM387.123 832h-35.123v-35.61h35.123v35.61zM70.963 832h-35.149v-35.61h35.149v35.61z"></path>
<path fill="#ecd979" d="M35.84 832h-35.149v-35.61h35.149v35.61zM1089.766 796.39h-35.149v-35.635h35.149v35.635zM914.099 796.39h-35.123v-35.635h35.123v35.635zM597.914 796.39h-35.149v-35.635h35.149v35.635zM527.667 796.39h-35.149v-35.635h35.149v35.635zM211.482 796.39h-35.123v-35.635h35.098v35.635zM35.84 796.39h-35.149v-35.635h35.149v35.635zM914.099 760.755h-35.123v-35.584h35.123v35.584zM878.976 760.755h-35.123v-35.584h35.123v35.584zM633.062 760.755h-35.149v-35.584h35.149v35.584z"></path>
<path fill="#ecd979" d="M597.914 760.755h-35.149v-35.584h35.149v35.584zM527.667 760.755h-35.149v-35.584h35.149v35.584z"></path>
<path fill="#ecd979" d="M492.544 760.755h-35.149v-35.584h35.123v35.584zM246.605 760.755h-35.123v-35.584h35.123v35.584zM211.482 760.755h-35.123v-35.584h35.098v35.584zM914.099 725.146h-35.123v-35.61h35.123v35.61zM878.976 725.146h-35.123v-35.61h35.123v35.61zM843.827 725.146h-35.123v-35.61h35.123v35.61zM668.16 725.146h-35.123v-35.61h35.149v35.61z"></path>
<path fill="#ecd979" d="M633.062 725.146h-35.149v-35.61h35.149v35.61zM492.544 725.146h-35.149v-35.61h35.123v35.61z"></path>
<path fill="#ecd979" d="M457.395 725.146h-35.123v-35.61h35.123v35.61zM281.754 725.146h-35.123v-35.61h35.123v35.61zM246.605 725.146h-35.123v-35.61h35.123v35.61zM211.482 725.146h-35.123v-35.61h35.098v35.61zM878.976 689.536h-35.123v-35.61h35.123v35.584zM843.827 689.536h-35.123v-35.61h35.123v35.584zM703.309 689.536h-35.149v-35.61h35.123v35.584z"></path>
<path fill="#ecd979" d="M668.16 689.536h-35.123v-35.61h35.149v35.584zM457.395 689.536h-35.123v-35.61h35.123v35.584zM422.272 689.536h-35.123v-35.61h35.123v35.584zM281.754 689.536h-35.123v-35.61h35.123v35.584zM246.605 689.536h-35.123v-35.61h35.123v35.584zM1019.52 653.926h-35.149v-35.635h35.149v35.635zM984.346 653.926h-35.098v-35.635h35.123v35.635zM949.248 653.926h-35.149v-35.635h35.123v35.635zM843.827 653.926h-35.123v-35.635h35.123v35.635zM738.458 653.926h-35.123v-35.635h35.123v35.635z"></path>
<path fill="#ecd979" d="M703.309 653.926h-35.149v-35.635h35.123v35.635zM422.272 653.926h-35.123v-35.635h35.123v35.635zM387.123 653.926h-35.123v-35.635h35.123v35.635zM281.754 653.926h-35.123v-35.635h35.123v35.635zM176.358 653.926h-35.123v-35.635h35.123v35.635zM141.235 653.926h-35.123v-35.635h35.123v35.635zM106.086 653.926h-35.174v-35.635h35.149v35.635zM1124.864 618.291h-35.123v-35.61h35.149v35.61zM984.346 618.291h-35.098v-35.61h35.123v35.61zM949.248 618.291h-35.149v-35.61h35.123v35.61zM914.099 618.291h-35.123v-35.61h35.123v35.61zM773.581 618.291h-35.123v-35.61h35.123v35.61zM738.458 618.291h-35.123v-35.61h35.123v35.61zM387.123 618.291h-35.123v-35.61h35.123v35.61zM352 618.291h-35.123v-35.61h35.123v35.61zM211.482 618.291h-35.123v-35.61h35.098v35.61zM176.358 618.291h-35.123v-35.61h35.123v35.61zM141.235 618.291h-35.123v-35.61h35.123v35.61zM1124.864 582.656h-35.123v-35.584h35.149v35.584z"></path>
<path fill="#ecd979" d="M1089.766 582.656h-35.149v-35.584h35.149v35.584zM949.248 582.656h-35.149v-35.584h35.123v35.584zM914.099 582.656h-35.123v-35.584h35.123v35.584zM878.976 582.656h-35.123v-35.584h35.123v35.584zM808.704 582.656h-35.123v-35.584h35.123v35.584zM773.581 582.656h-35.123v-35.584h35.123v35.584zM562.816 582.656h-35.149v-35.584h35.149v35.584zM352 582.656h-35.123v-35.584h35.123v35.584zM316.877 582.656h-35.123v-35.584h35.123v35.584zM246.605 582.656h-35.123v-35.584h35.123v35.584zM211.482 582.656h-35.123v-35.584h35.098v35.584zM176.358 582.656h-35.123v-35.584h35.123v35.584zM35.123 547.072h-35.123v-35.635h35.123v35.635zM70.963 547.072h-35.149v-35.635h35.149v35.635zM35.123 582.656h-35.123v-35.584h35.123v35.584zM35.123 511.437h-35.123v-35.61h35.123v35.61zM1124.864 547.072h-35.123v-35.635h35.149v35.635z"></path>
<path fill="#ecd979" d="M1089.766 547.072h-35.149v-35.635h35.149v35.635z"></path>
<path fill="#ecd979" d="M1054.643 547.072h-35.149v-35.635h35.149v35.635zM597.914 547.072h-35.149v-35.635h35.149v35.635z"></path>
<path fill="#ecd979" d="M562.816 547.072h-35.149v-35.635h35.149v35.635zM527.667 547.072h-35.149v-35.635h35.149v35.635zM1124.864 511.437h-35.123v-35.61h35.149v35.61z"></path>
<path fill="#ecd979" d="M1089.766 511.437h-35.149v-35.61h35.149v35.61zM949.248 511.437h-35.149v-35.61h35.123v35.61zM914.099 511.437h-35.123v-35.61h35.123v35.61zM878.976 511.437h-35.123v-35.61h35.123v35.61zM808.704 511.437h-35.123v-35.61h35.123v35.61zM773.581 511.437h-35.123v-35.61h35.123v35.61zM562.816 511.437h-35.149v-35.61h35.149v35.61zM352 511.437h-35.123v-35.61h35.123v35.61zM316.877 511.437h-35.123v-35.61h35.123v35.61zM246.605 511.437h-35.123v-35.61h35.123v35.61zM211.482 511.437h-35.123v-35.61h35.098v35.61zM176.358 511.437h-35.123v-35.61h35.123v35.61zM1124.864 475.827h-35.123v-35.61h35.149v35.584zM984.346 475.827h-35.098v-35.61h35.123v35.584zM949.248 475.827h-35.149v-35.61h35.123v35.584zM914.099 475.827h-35.123v-35.61h35.123v35.584zM773.581 475.827h-35.123v-35.61h35.123v35.584zM738.458 475.827h-35.123v-35.61h35.123v35.584zM387.123 475.827h-35.123v-35.61h35.123v35.584zM352 475.827h-35.123v-35.61h35.123v35.584zM211.482 475.827h-35.123v-35.61h35.098v35.584zM176.358 475.827h-35.123v-35.61h35.123v35.584zM141.235 475.827h-35.123v-35.61h35.123v35.584zM1019.52 440.218h-35.149v-35.635h35.149v35.635z"></path>
<path fill="#ecd979" d="M984.346 440.218h-35.098v-35.635h35.123v35.635zM949.248 440.218h-35.149v-35.635h35.123v35.635zM843.827 440.218h-35.123v-35.635h35.123v35.635zM738.458 440.218h-35.123v-35.635h35.123v35.635zM703.309 440.218h-35.149v-35.635h35.123v35.635zM422.272 440.218h-35.123v-35.635h35.123v35.635zM387.123 440.218h-35.123v-35.635h35.123v35.635zM281.754 440.218h-35.123v-35.635h35.123v35.635zM176.358 440.218h-35.123v-35.635h35.123v35.635zM141.235 440.218h-35.123v-35.635h35.123v35.635zM106.086 440.218h-35.174v-35.635h35.149v35.635zM878.976 404.582h-35.123v-35.61h35.123v35.61zM843.827 404.582h-35.123v-35.61h35.123v35.61zM703.309 404.582h-35.149v-35.61h35.123v35.61z"></path>
<path fill="#ecd979" d="M668.16 404.582h-35.123v-35.61h35.149v35.61zM457.395 404.582h-35.123v-35.61h35.123v35.61zM422.272 404.582h-35.123v-35.61h35.123v35.61zM281.754 404.582h-35.123v-35.61h35.123v35.61zM246.605 404.582h-35.123v-35.61h35.123v35.61zM914.099 368.973h-35.123v-35.61h35.123v35.61zM878.976 368.973h-35.123v-35.61h35.123v35.61zM843.827 368.973h-35.123v-35.61h35.123v35.61zM668.16 368.973h-35.123v-35.61h35.149v35.61z"></path>
<path fill="#ecd979" d="M633.062 368.973h-35.149v-35.61h35.149v35.61zM492.544 368.973h-35.149v-35.61h35.123v35.61z"></path>
<path fill="#ecd979" d="M457.395 368.973h-35.123v-35.61h35.123v35.61zM281.754 368.973h-35.123v-35.61h35.123v35.61zM246.605 368.973h-35.123v-35.61h35.123v35.61zM211.482 368.973h-35.123v-35.61h35.098v35.61zM914.099 333.363h-35.123v-35.635h35.123v35.635zM878.976 333.363h-35.123v-35.635h35.123v35.635zM633.062 333.363h-35.149v-35.635h35.149v35.635z"></path>
<path fill="#ecd979" d="M597.914 333.363h-35.149v-35.635h35.149v35.635zM527.667 333.363h-35.149v-35.635h35.149v35.635z"></path>
<path fill="#ecd979" d="M492.544 333.363h-35.149v-35.635h35.123v35.635zM246.605 333.363h-35.123v-35.635h35.123v35.635zM211.482 333.363h-35.123v-35.635h35.098v35.635zM914.099 297.728h-35.123v-35.584h35.123v35.584zM597.914 297.728h-35.149v-35.584h35.149v35.584zM527.667 297.728h-35.149v-35.584h35.149v35.584zM211.482 297.728h-35.123v-35.584h35.098v35.584zM1089.766 262.144h-35.149v-35.661h35.149v35.61zM35.84 262.144h-35.149v-35.661h35.149v35.61z"></path>
<path fill="#ecd979" d="M1089.766 226.509h-35.149v-35.635h35.149v35.635z"></path>
<path fill="#ecd979" d="M1054.643 226.509h-35.149v-35.635h35.149v35.635zM738.458 226.509h-35.123v-35.635h35.123v35.635zM703.309 226.509h-35.149v-35.635h35.123v35.635z"></path>
<path fill="#ecd979" d="M668.16 226.509h-35.123v-35.635h35.149v35.635zM457.395 226.509h-35.123v-35.635h35.123v35.635zM422.272 226.509h-35.123v-35.635h35.123v35.635zM387.123 226.509h-35.123v-35.635h35.123v35.635zM70.963 226.509h-35.149v-35.635h35.149v35.635z"></path>
<path fill="#ecd979" d="M35.84 226.509h-35.149v-35.635h35.149v35.635zM1089.766 190.899h-35.149v-35.635h35.149v35.635z"></path>
<path fill="#ecd979" d="M1054.643 190.899h-35.149v-35.635h35.149v35.635z"></path>
<path fill="#ecd979" d="M1019.52 190.899h-35.149v-35.635h35.149v35.635zM773.581 190.899h-35.123v-35.635h35.123v35.635zM738.458 190.899h-35.123v-35.635h35.123v35.635zM703.309 190.899h-35.149v-35.635h35.123v35.635zM597.914 190.899h-35.149v-35.635h35.149v35.635zM527.667 190.899h-35.149v-35.635h35.149v35.635zM422.272 190.899h-35.123v-35.635h35.123v35.635zM387.123 190.899h-35.123v-35.635h35.123v35.635zM352 190.899h-35.123v-35.635h35.123v35.635zM106.086 190.899h-35.174v-35.635h35.149v35.635z"></path>
<path fill="#ecd979" d="M70.963 190.899h-35.149v-35.635h35.149v35.635z"></path>
<path fill="#ecd979" d="M35.84 190.899h-35.149v-35.635h35.149v35.635zM1054.643 155.264h-35.149v-35.61h35.149v35.61z"></path>
<path fill="#ecd979" d="M1019.52 155.264h-35.149v-35.61h35.149v35.61zM984.346 155.264h-35.098v-35.61h35.123v35.61zM808.704 155.264h-35.123v-35.61h35.123v35.61zM773.581 155.264h-35.123v-35.61h35.123v35.61zM738.458 155.264h-35.123v-35.61h35.123v35.61zM633.062 155.264h-35.149v-35.61h35.149v35.61z"></path>
<path fill="#ecd979" d="M597.914 155.264h-35.149v-35.61h35.149v35.61zM527.667 155.264h-35.149v-35.61h35.149v35.61z"></path>
<path fill="#ecd979" d="M492.544 155.264h-35.149v-35.61h35.123v35.61zM387.123 155.264h-35.123v-35.61h35.123v35.61zM352 155.264h-35.123v-35.61h35.123v35.61zM316.877 155.264h-35.123v-35.61h35.123v35.61zM141.235 155.264h-35.123v-35.61h35.123v35.61zM106.086 155.264h-35.174v-35.61h35.149v35.61z"></path>
<path fill="#ecd979" d="M70.963 155.264h-35.149v-35.61h35.149v35.61zM1019.52 119.654h-35.149v-35.61h35.149v35.584zM984.346 119.654h-35.098v-35.61h35.123v35.584zM949.248 119.654h-35.149v-35.61h35.123v35.584zM668.16 119.654h-35.123v-35.61h35.149v35.584z"></path>
<path fill="#ecd979" d="M633.062 119.654h-35.149v-35.61h35.149v35.584z"></path>
<path fill="#ecd979" d="M597.914 119.654h-35.149v-35.61h35.149v35.584zM527.667 119.654h-35.149v-35.61h35.149v35.584z"></path>
<path fill="#ecd979" d="M492.544 119.654h-35.149v-35.61h35.123v35.584z"></path>
<path fill="#ecd979" d="M457.395 119.654h-35.123v-35.61h35.123v35.584zM176.358 119.654h-35.123v-35.61h35.123v35.584zM141.235 119.654h-35.123v-35.61h35.123v35.584zM106.086 119.654h-35.174v-35.61h35.149v35.584zM1124.864 84.045h-35.123v-35.661h35.149v35.635zM984.346 84.045h-35.098v-35.661h35.123v35.635zM949.248 84.045h-35.149v-35.661h35.123v35.635zM914.099 84.045h-35.123v-35.661h35.123v35.635zM668.16 84.045h-35.123v-35.661h35.149v35.635z"></path>
<path fill="#ecd979" d="M633.062 84.045h-35.149v-35.661h35.149v35.635zM492.544 84.045h-35.149v-35.661h35.123v35.635z"></path>
<path fill="#ecd979" d="M457.395 84.045h-35.123v-35.661h35.123v35.635zM211.482 84.045h-35.123v-35.661h35.098v35.635zM176.358 84.045h-35.123v-35.661h35.123v35.635zM141.235 84.045h-35.123v-35.661h35.123v35.635zM1124.864 48.41h-35.123v-35.61h35.149v35.61z"></path>
<path fill="#ecd979" d="M1089.766 48.41h-35.149v-35.61h35.149v35.61zM949.248 48.41h-35.149v-35.61h35.123v35.61zM914.099 48.41h-35.123v-35.61h35.123v35.61zM878.976 48.41h-35.123v-35.61h35.123v35.61zM668.16 48.41h-35.123v-35.61h35.149v35.61zM457.395 48.41h-35.123v-35.61h35.123v35.61zM246.605 48.41h-35.123v-35.61h35.123v35.61zM211.482 48.41h-35.123v-35.61h35.098v35.61zM176.358 48.41h-35.123v-35.61h35.123v35.61zM35.84 48.41h-35.149v-35.61h35.149v35.61z"></path>
</svg>
